<?xml version="1.0" encoding="UTF-8" standalone="no"?>
<!-- Created with Inkscape (http://www.inkscape.org/) -->

<svg
   xmlns:dc="http://purl.org/dc/elements/1.1/"
   xmlns:cc="http://creativecommons.org/ns#"
   xmlns:rdf="http://www.w3.org/1999/02/22-rdf-syntax-ns#"
   xmlns:svg="http://www.w3.org/2000/svg"
   xmlns="http://www.w3.org/2000/svg"
   xmlns:sodipodi="http://sodipodi.sourceforge.net/DTD/sodipodi-0.dtd"
   xmlns:inkscape="http://www.inkscape.org/namespaces/inkscape"
   width="668"
   height="370"
   viewBox="0 0 176.74167 97.895837"
   version="1.1"
   id="svg29460"
   inkscape:version="0.92.1 r15371"
   sodipodi:docname="workspace.svg">
  <defs
     id="defs29454">
    <clipPath
       id="clipPath24269-2-9-6-3"
       clipPathUnits="userSpaceOnUse">
      <path
         inkscape:connector-curvature="0"
         id="path24267-8-7-0-9"
         d="m 728.85,266.061 h 84.092 V 218.206 H 728.85 Z" />
    </clipPath>
    <clipPath
       id="clipPath24241-3-1-8-4"
       clipPathUnits="userSpaceOnUse">
      <path
         inkscape:connector-curvature="0"
         id="path24239-0-9-5-1"
         d="M 668.891,316.584 H 867.393 V 118.226 H 668.891 Z" />
    </clipPath>
  </defs>
  <sodipodi:namedview
     id="base"
     pagecolor="#ffffff"
     bordercolor="#666666"
     borderopacity="1.0"
     inkscape:pageopacity="0.0"
     inkscape:pageshadow="2"
     inkscape:zoom="1"
     inkscape:cx="417.68784"
     inkscape:cy="224.73224"
     inkscape:document-units="mm"
     inkscape:current-layer="layer1"
     showgrid="false"
     units="px"
     inkscape:window-width="1366"
     inkscape:window-height="744"
     inkscape:window-x="0"
     inkscape:window-y="24"
     inkscape:window-maximized="1" />
  <metadata
     id="metadata29457">
    <rdf:RDF>
      <cc:Work
         rdf:about="">
        <dc:format>image/svg+xml</dc:format>
        <dc:type
           rdf:resource="http://purl.org/dc/dcmitype/StillImage" />
        <dc:title></dc:title>
      </cc:Work>
    </rdf:RDF>
  </metadata>
  <g
     inkscape:label="Layer 1"
     inkscape:groupmode="layer"
     id="layer1"
     transform="translate(0,-199.10415)">
    <g
       id="g29982"
       transform="translate(-19.703048,96.111257)">
      <path
         inkscape:connector-curvature="0"
         style="fill:#dddddd;stroke-width:0.49388888"
         d="m 161.48386,105.91375 c -0.39157,-0.75712 -1.34528,-0.72053 -2.67829,-0.72053 H 34.116932 c -1.335573,0 -2.286293,-0.0363 -2.680426,0.72053 -0.393067,0.7567 -0.185173,1.77355 0.581867,2.86358 l 6.485226,9.2224 6.48576,9.21994 2.979625,4.24096 h 5.186347 30.050131 v 0 H 47.882053 l 0.369919,0.52352 1.265812,1.78646 h 0.389654 33.298559 v 7.33472 c 0,1.52757 1.263785,2.77023 2.814611,2.77023 h 20.513702 c 1.55179,0 2.81419,-1.24266 2.81419,-2.77023 v -7.33472 h 33.65803 0.38965 l 1.26539,-1.78646 0.37034,-0.52352 h -35.68394 v 0 h 30.41717 5.18432 l 2.98165,-4.24096 6.48523,-9.21994 6.48629,-9.2224 c 0.768,-1.09003 0.97387,-2.10891 0.58123,-2.86358 z"
         id="path9537-4-7" />
      <path
         id="path9539-5-8"
         d="M 104.24312,141.72815 H 83.725996 c -1.551252,0 -2.814614,-1.24267 -2.814614,-2.77024 V 126.0457 c 0,-1.52757 1.263788,-2.77024 2.814614,-2.77024 h 20.517124 c 1.55189,0 2.81418,1.24267 2.81418,2.77024 v 12.91274 c 5.3e-4,1.52758 -1.26229,2.76971 -2.81418,2.76971 z"
         style="fill:#dddddd;stroke-width:0.49388888"
         inkscape:connector-curvature="0" />
      <path
         style="opacity:0.98999999;fill:#424242;fill-opacity:1;stroke-width:0.49388888"
         id="path9541-0-5"
         d="m 142.65879,129.30927 h -5.18378 -86.614291 -5.185814 l -2.98016,-4.24096 -6.485759,-9.21994 -6.485226,-9.2224 c -0.76704,-1.09046 -0.974934,-2.10742 -0.581867,-2.86411 0.394133,-0.75659 1.344853,-0.72053 2.679893,-0.72053 H 156.51543 c 1.33291,0 2.28566,-0.0363 2.6783,0.72053 0.39317,0.75467 0.18624,1.77365 -0.5808,2.86411 l -6.48726,9.2224 -6.48426,9.22037 z"
         inkscape:connector-curvature="0" />
      <polygon
         transform="matrix(0.4938889,0,0,0.4938889,9.9810386,96.289763)"
         id="polygon9543-4-8"
         points="263.111,62.301 294.785,18.908 46.126,18.908 77.951,62.301 "
         style="fill:#666666" />
      <polygon
         transform="matrix(0.4938889,0,0,0.4938889,9.9810386,96.289763)"
         id="polygon9545-8-2"
         points="75.406,71.542 76.195,71.542 264.704,71.542 265.493,71.542 268.058,67.924 268.808,66.865 72.093,66.865 72.842,67.924 "
         style="fill:#ffffff" />
      <polygon
         transform="matrix(0.4938889,0,0,0.4938889,9.9810386,96.289763)"
         id="polygon9583-9-0"
         points="246.236,193.838 246.185,193.877 315.178,193.947 314.942,193.777 314.942,150.629 314.942,150.628 314.638,150.628 314.888,150.448 280.775,150.628 246.169,150.628 245.879,193.838 246.169,193.838 "
         style="fill:#dddddd" />
      <rect
         x="129.7002"
         y="168.39314"
         style="fill:#ecf0f1;fill-opacity:1;stroke-width:0.49388888"
         width="33.965237"
         height="21.339952"
         id="rect9585-7-6" />
      <g
         style="fill:#dddddd;fill-opacity:1"
         transform="matrix(0.4938889,0,0,0.4938889,9.9810386,96.289763)"
         id="g9589-7-4">
        <polyline
           style="fill:#dddddd;fill-opacity:1"
           points="242.416,189.238 276.551,164.174 311.409,189.308      "
           id="polyline9587-1-6" />
      </g>
      <path
         inkscape:connector-curvature="0"
         style="fill:#ffffff;stroke-width:0.49388888"
         d="m 129.85026,168.48207 15.26176,11.04043 c 0.86869,0.62826 2.04224,0.63018 2.91189,0 l 15.61429,-11.22368"
         id="path9591-1-2" />
      <polygon
         transform="matrix(0.4938889,0,0,0.4938889,9.9810386,96.289763)"
         style="fill:none"
         points="242.11,189.199 311.173,189.199 311.173,145.99 242.401,145.99 "
         id="polygon9593-5-8" />
      <g
         transform="matrix(0.4938889,0,0,0.4938889,9.9810386,96.289763)"
         id="g9738-9-9">
        <path
           inkscape:connector-curvature="0"
           style="fill:#dddddd"
           d="M 246.925,107.583 H 102.132 c -1.055,0 -1.917,0.813 -1.917,1.804 l 10e-4,53.314 c -10e-4,0.991 0.862,1.804 1.917,1.804 h 144.792 c 1.055,0 1.921,-0.812 1.921,-1.804 l 0.001,-53.315 c -0.001,-0.989 -0.868,-1.803 -1.922,-1.803 z"
           id="path9599-7-6" />
        <g
           id="keyboard_1_-7-0">
          <path
             inkscape:connector-curvature="0"
             style="fill:#ffffff"
             d="m 244.208,105.031 c -0.001,-0.99 -0.868,-1.804 -1.922,-1.804 H 97.485 c -1.055,0 -1.917,0.814 -1.917,1.805 l 0.001,53.321 c -0.001,0.99 0.863,1.804 1.917,1.804 h 144.8 c 1.054,0 1.921,-0.813 1.921,-1.804 z"
             id="path9601-6-7" />
          <g
             id="g9735-7-0">
            <path
               inkscape:connector-curvature="0"
               style="fill:#dddddd"
               d="m 107.371,115.531 c 0,0.259 -0.209,0.471 -0.467,0.471 h -7.156 c -0.258,0 -0.467,-0.211 -0.467,-0.47 l 10e-4,-7.168 c 0,-0.26 0.209,-0.469 0.468,-0.469 h 7.154 c 0.257,0 0.467,0.209 0.467,0.47 z"
               id="path9603-3-1" />
            <path
               inkscape:connector-curvature="0"
               style="fill:#dddddd"
               d="m 122.199,125.402 c 0,0.263 -0.207,0.474 -0.469,0.473 h -7.154 c -0.258,0 -0.466,-0.21 -0.466,-0.473 v -7.169 c 0,-0.255 0.208,-0.466 0.464,-0.466 h 7.155 c 0.262,0 0.469,0.211 0.469,0.466 v 7.169 z"
               id="path9605-6-0" />
            <path
               inkscape:connector-curvature="0"
               style="fill:#dddddd"
               d="m 124.531,135.278 c 10e-4,0.261 -0.209,0.466 -0.467,0.466 h -7.155 c -0.253,0 -0.467,-0.205 -0.468,-0.466 v -7.172 c 0,-0.252 0.214,-0.465 0.467,-0.465 l 7.156,-0.001 c 0.258,0.001 0.467,0.214 0.467,0.466 z"
               id="path9607-5-1" />
            <path
               inkscape:connector-curvature="0"
               style="fill:#dddddd"
               d="m 119.708,145.149 c 0,0.257 -0.21,0.469 -0.467,0.469 h -7.154 c -0.254,-0.001 -0.465,-0.212 -0.465,-0.469 v -7.17 c 0,-0.257 0.211,-0.469 0.465,-0.469 h 7.154 c 0.258,0 0.467,0.212 0.467,0.469 z"
               id="path9609-6-3" />
            <path
               inkscape:connector-curvature="0"
               style="fill:#dddddd"
               d="m 107.371,156.27 c 0,0.258 -0.21,0.468 -0.467,0.468 h -7.155 c -0.259,0 -0.468,-0.21 -0.467,-0.469 l -10e-4,-8.418 c 10e-4,-0.253 0.209,-0.467 0.468,-0.467 h 7.155 c 0.258,0 0.467,0.214 0.467,0.467 z"
               id="path9611-3-7" />
            <path
               inkscape:connector-curvature="0"
               style="fill:#dddddd"
               d="m 117.193,156.27 c 0.001,0.258 -0.209,0.468 -0.467,0.468 h -7.152 c -0.257,0 -0.468,-0.21 -0.469,-0.468 l 10e-4,-8.419 c 0,-0.252 0.211,-0.467 0.468,-0.467 h 7.15 c 0.26,0 0.469,0.215 0.469,0.467 z"
               id="path9613-9-7" />
            <path
               inkscape:connector-curvature="0"
               style="fill:#dddddd"
               d="m 127.021,156.269 c 0,0.259 -0.211,0.469 -0.469,0.469 h -7.153 c -0.258,0 -0.467,-0.21 -0.467,-0.468 v -8.419 c 0,-0.252 0.208,-0.467 0.466,-0.467 h 7.155 c 0.257,0 0.468,0.215 0.468,0.467 z"
               id="path9615-4-2" />
            <path
               inkscape:connector-curvature="0"
               style="fill:#dddddd"
               d="m 210.939,156.269 c 0,0.259 -0.213,0.469 -0.471,0.469 h -7.153 c -0.257,0 -0.467,-0.21 -0.467,-0.468 v -8.419 c 0,-0.253 0.21,-0.467 0.467,-0.467 h 7.155 c 0.256,0 0.469,0.214 0.469,0.467 z"
               id="path9617-8-6" />
            <path
               inkscape:connector-curvature="0"
               style="fill:#dddddd"
               d="m 220.788,156.269 c 10e-4,0.259 -0.211,0.469 -0.469,0.469 h -7.149 c -0.262,0 -0.472,-0.21 -0.472,-0.468 v -3.744 c 0,-0.253 0.21,-0.466 0.472,-0.466 h 7.149 c 0.259,0 0.469,0.213 0.469,0.467 z"
               id="path9619-1-4" />
            <path
               inkscape:connector-curvature="0"
               style="fill:#dddddd"
               d="m 240.49,156.269 c 0,0.259 -0.209,0.469 -0.468,0.469 h -7.153 c -0.256,0 -0.469,-0.209 -0.469,-0.469 v -3.743 c 0,-0.254 0.212,-0.466 0.469,-0.466 h 7.153 c 0.259,0 0.468,0.212 0.468,0.467 z"
               id="path9621-2-5" />
            <path
               inkscape:connector-curvature="0"
               style="fill:#dddddd"
               d="m 139.41,156.27 c 0,0.258 -0.209,0.468 -0.464,0.468 h -9.724 c -0.257,0 -0.465,-0.21 -0.465,-0.469 v -8.418 c 0,-0.252 0.208,-0.467 0.465,-0.467 h 9.724 c 0.254,0 0.464,0.214 0.464,0.467 z"
               id="path9623-9-2" />
            <path
               inkscape:connector-curvature="0"
               style="fill:#dddddd"
               d="m 201.086,156.27 c 0,0.258 -0.207,0.468 -0.467,0.468 h -9.722 c -0.254,0 -0.469,-0.21 -0.469,-0.469 v -8.418 c 0,-0.252 0.215,-0.467 0.469,-0.467 h 9.722 c 0.26,0 0.467,0.214 0.467,0.467 z"
               id="path9625-3-0" />
            <path
               inkscape:connector-curvature="0"
               style="fill:#dddddd"
               d="m 188.669,156.269 c 0,0.259 -0.212,0.469 -0.471,0.469 H 141.64 c -0.254,0 -0.47,-0.21 -0.47,-0.468 v -8.419 c 0,-0.253 0.215,-0.467 0.47,-0.467 h 46.559 c 0.258,0 0.47,0.214 0.47,0.467 z"
               id="path9627-9-2" />
            <path
               inkscape:connector-curvature="0"
               style="fill:#dddddd"
               d="m 129.559,145.149 c 0,0.257 -0.208,0.469 -0.465,0.468 l -7.156,0.001 c -0.252,0 -0.464,-0.212 -0.464,-0.469 v -7.171 c 0,-0.256 0.212,-0.468 0.465,-0.468 h 7.155 c 0.257,0 0.465,0.212 0.465,0.468 z"
               id="path9629-0-9" />
            <path
               inkscape:connector-curvature="0"
               style="fill:#dddddd"
               d="m 139.41,145.149 c 0,0.257 -0.209,0.469 -0.464,0.469 h -7.154 c -0.259,0 -0.468,-0.212 -0.468,-0.469 v -7.171 c 0,-0.256 0.209,-0.468 0.468,-0.468 h 7.154 c 0.254,0 0.464,0.212 0.464,0.469 z"
               id="path9631-8-0" />
            <path
               inkscape:connector-curvature="0"
               style="fill:#dddddd"
               d="m 149.262,145.149 c 0,0.257 -0.208,0.469 -0.468,0.468 l -7.153,0.001 c -0.254,-0.001 -0.47,-0.212 -0.47,-0.469 v -7.17 c 0,-0.257 0.216,-0.469 0.47,-0.469 h 7.153 c 0.26,0 0.469,0.212 0.469,0.468 z"
               id="path9633-8-9" />
            <path
               inkscape:connector-curvature="0"
               style="fill:#dddddd"
               d="m 159.112,145.149 c 0,0.257 -0.21,0.469 -0.465,0.469 h -7.153 c -0.257,0 -0.469,-0.212 -0.469,-0.469 v -7.171 c 0,-0.256 0.212,-0.468 0.469,-0.468 h 7.153 c 0.254,0 0.465,0.212 0.465,0.469 z"
               id="path9635-5-9" />
            <path
               inkscape:connector-curvature="0"
               style="fill:#dddddd"
               d="m 168.965,145.149 c 0,0.257 -0.21,0.468 -0.468,0.469 h -7.153 c -0.257,0 -0.467,-0.212 -0.467,-0.469 l 10e-4,-7.171 c -10e-4,-0.256 0.21,-0.468 0.466,-0.468 h 7.155 c 0.255,0 0.466,0.212 0.465,0.468 z"
               id="path9637-0-4" />
            <path
               inkscape:connector-curvature="0"
               style="fill:#dddddd"
               d="m 178.816,145.149 c 0,0.257 -0.209,0.469 -0.465,0.468 l -7.157,0.001 c -0.258,0 -0.467,-0.212 -0.467,-0.469 v -7.17 c 0,-0.257 0.209,-0.469 0.467,-0.469 h 7.157 c 0.256,0 0.465,0.212 0.465,0.468 z"
               id="path9639-9-5" />
            <path
               inkscape:connector-curvature="0"
               style="fill:#dddddd"
               d="m 188.669,145.149 c 0,0.257 -0.212,0.469 -0.471,0.469 h -7.151 c -0.256,-0.001 -0.467,-0.212 -0.467,-0.469 v -7.171 c 0,-0.256 0.211,-0.468 0.467,-0.468 h 7.151 c 0.259,0 0.471,0.212 0.471,0.468 z"
               id="path9641-6-1" />
            <path
               inkscape:connector-curvature="0"
               style="fill:#dddddd"
               d="m 198.52,145.149 c 0,0.257 -0.21,0.469 -0.469,0.469 h -7.153 c -0.254,-0.001 -0.469,-0.212 -0.469,-0.469 v -7.171 c 0,-0.256 0.215,-0.468 0.469,-0.468 h 7.153 c 0.259,0 0.469,0.212 0.469,0.468 z"
               id="path9643-3-0" />
            <path
               inkscape:connector-curvature="0"
               style="fill:#dddddd"
               d="m 208.37,145.149 c 0,0.257 -0.207,0.469 -0.467,0.468 l -7.155,0.001 c -0.258,0 -0.467,-0.212 -0.467,-0.469 v -7.171 c 0,-0.256 0.209,-0.468 0.467,-0.468 h 7.154 c 0.261,0 0.468,0.212 0.468,0.469 z"
               id="path9645-8-3" />
            <path
               inkscape:connector-curvature="0"
               style="fill:#dddddd"
               d="m 218.223,145.149 c 0,0.257 -0.213,0.468 -0.467,0.468 l -7.156,0.001 c -0.257,-0.001 -0.468,-0.212 -0.468,-0.469 v -7.171 c 0,-0.256 0.21,-0.468 0.468,-0.468 h 7.154 c 0.256,0 0.469,0.212 0.469,0.468 z"
               id="path9647-5-7" />
            <path
               inkscape:connector-curvature="0"
               style="fill:#dddddd"
               d="m 240.411,145.149 c 0,0.257 -0.21,0.468 -0.467,0.468 h -19.493 c -0.257,0 -0.468,-0.211 -0.468,-0.468 v -7.171 c 0,-0.256 0.211,-0.468 0.468,-0.468 h 19.493 c 0.26,0 0.467,0.212 0.467,0.468 z"
               id="path9649-6-8" />
            <path
               inkscape:connector-curvature="0"
               style="fill:#dddddd"
               d="m 134.38,135.277 c 0,0.262 -0.205,0.467 -0.462,0.467 h -7.158 c -0.255,0 -0.464,-0.205 -0.464,-0.466 v -7.172 c 0,-0.252 0.209,-0.465 0.464,-0.465 h 7.159 c 0.258,0 0.462,0.212 0.462,0.466 v 7.17 z"
               id="path9651-1-8" />
            <path
               inkscape:connector-curvature="0"
               style="fill:#dddddd"
               d="m 144.234,135.277 c -0.001,0.262 -0.21,0.467 -0.468,0.467 h -7.156 c -0.254,0 -0.462,-0.205 -0.462,-0.467 v -7.171 c 0,-0.253 0.207,-0.465 0.462,-0.465 h 7.156 c 0.257,0 0.468,0.212 0.467,0.466 z"
               id="path9653-1-6" />
            <path
               inkscape:connector-curvature="0"
               style="fill:#dddddd"
               d="m 154.082,135.277 c 0,0.262 -0.205,0.467 -0.463,0.467 h -7.155 c -0.257,0 -0.467,-0.205 -0.466,-0.467 v -7.17 c 0,-0.254 0.209,-0.466 0.467,-0.466 h 7.155 c 0.258,0 0.463,0.212 0.463,0.465 v 7.171 z"
               id="path9655-5-0" />
            <path
               inkscape:connector-curvature="0"
               style="fill:#dddddd"
               d="m 163.936,135.277 c 0,0.261 -0.211,0.467 -0.464,0.467 h -7.159 c -0.255,0 -0.464,-0.205 -0.464,-0.466 v -7.172 c 0,-0.252 0.209,-0.465 0.464,-0.465 h 7.159 c 0.253,0 0.464,0.213 0.464,0.465 z"
               id="path9657-9-4" />
            <path
               inkscape:connector-curvature="0"
               style="fill:#dddddd"
               d="m 173.786,135.277 c 0,0.262 -0.211,0.467 -0.466,0.467 h -7.155 c -0.252,0 -0.468,-0.205 -0.467,-0.467 v -7.171 c 0,-0.253 0.215,-0.466 0.467,-0.466 l 7.155,0.001 c 0.255,0 0.466,0.212 0.466,0.465 z"
               id="path9659-8-6" />
            <path
               inkscape:connector-curvature="0"
               style="fill:#dddddd"
               d="m 183.639,135.277 c 0,0.262 -0.212,0.467 -0.468,0.467 h -7.152 c -0.256,0 -0.466,-0.205 -0.466,-0.467 v -7.17 c 0,-0.254 0.21,-0.467 0.466,-0.466 l 7.152,-0.001 c 0.256,0 0.468,0.213 0.468,0.466 z"
               id="path9661-4-7" />
            <path
               inkscape:connector-curvature="0"
               style="fill:#dddddd"
               d="m 193.488,135.278 c 0,0.261 -0.206,0.466 -0.466,0.466 h -7.155 c -0.256,0 -0.465,-0.205 -0.464,-0.467 v -7.171 c 0,-0.253 0.208,-0.465 0.464,-0.465 h 7.155 c 0.258,0 0.466,0.213 0.466,0.465 z"
               id="path9663-8-6" />
            <path
               inkscape:connector-curvature="0"
               style="fill:#dddddd"
               d="m 203.34,135.277 c 0.001,0.261 -0.209,0.467 -0.465,0.467 h -7.156 c -0.255,0 -0.465,-0.206 -0.465,-0.466 v -7.172 c 0,-0.252 0.21,-0.465 0.465,-0.465 h 7.156 c 0.256,0 0.465,0.212 0.466,0.465 z"
               id="path9665-1-0" />
            <path
               inkscape:connector-curvature="0"
               style="fill:#dddddd"
               d="m 213.192,135.277 c -0.001,0.262 -0.21,0.467 -0.466,0.467 h -7.156 c -0.26,0 -0.467,-0.206 -0.468,-0.467 l 0.001,-7.171 c -0.001,-0.253 0.208,-0.466 0.466,-0.465 h 7.157 c 0.257,0 0.466,0.212 0.466,0.465 z"
               id="path9667-0-9" />
            <path
               inkscape:connector-curvature="0"
               style="fill:#dddddd"
               d="m 223.042,135.277 c 0,0.261 -0.21,0.467 -0.466,0.467 h -7.152 c -0.258,0 -0.47,-0.206 -0.47,-0.467 v -7.171 c 0.001,-0.253 0.21,-0.466 0.47,-0.465 h 7.152 c 0.256,0 0.466,0.212 0.466,0.465 z"
               id="path9669-3-7" />
            <path
               inkscape:connector-curvature="0"
               style="fill:#dddddd"
               d="m 232.896,135.277 c 0,0.261 -0.212,0.467 -0.469,0.467 h -7.156 c -0.256,0 -0.463,-0.206 -0.463,-0.467 v -7.171 c 0.002,-0.253 0.207,-0.466 0.463,-0.465 l 7.158,-0.001 c 0.255,0.001 0.465,0.213 0.467,0.466 z"
               id="path9671-0-5" />
            <path
               inkscape:connector-curvature="0"
               style="fill:#dddddd"
               d="m 132.049,125.402 c 0,0.263 -0.209,0.473 -0.468,0.473 h -7.154 c -0.255,0 -0.468,-0.21 -0.468,-0.473 v -7.17 c 0,-0.254 0.212,-0.465 0.468,-0.465 h 7.153 c 0.259,0 0.468,0.211 0.468,0.466 v 7.169 z"
               id="path9673-4-9" />
            <path
               inkscape:connector-curvature="0"
               style="fill:#dddddd"
               d="m 141.9,125.402 c 0.001,0.263 -0.21,0.474 -0.468,0.473 h -7.155 c -0.256,0 -0.465,-0.21 -0.465,-0.473 v -7.169 c 0,-0.256 0.209,-0.466 0.466,-0.466 h 7.154 c 0.259,0 0.469,0.211 0.469,0.466 v 7.169 z"
               id="path9675-4-7" />
            <path
               inkscape:connector-curvature="0"
               style="fill:#dddddd"
               d="m 151.752,125.402 c 0,0.263 -0.21,0.473 -0.469,0.473 h -7.154 c -0.253,0 -0.463,-0.21 -0.463,-0.473 v -7.169 c 0,-0.255 0.21,-0.466 0.463,-0.466 h 7.155 c 0.258,0 0.468,0.211 0.468,0.466 z"
               id="path9677-4-8" />
            <path
               inkscape:connector-curvature="0"
               style="fill:#dddddd"
               d="m 161.6,125.402 c -0.001,0.263 -0.21,0.473 -0.463,0.473 h -7.155 c -0.258,0.001 -0.468,-0.21 -0.468,-0.473 v -7.169 c 0,-0.255 0.21,-0.466 0.468,-0.466 h 7.155 c 0.253,0 0.463,0.21 0.463,0.466 z"
               id="path9679-4-5" />
            <path
               inkscape:connector-curvature="0"
               style="fill:#dddddd"
               d="m 171.454,125.402 c 0,0.263 -0.211,0.473 -0.47,0.473 h -7.151 c -0.257,0 -0.467,-0.21 -0.467,-0.473 v -7.169 c 0,-0.255 0.209,-0.466 0.465,-0.466 h 7.153 c 0.259,0 0.47,0.211 0.47,0.466 z"
               id="path9681-7-3" />
            <path
               inkscape:connector-curvature="0"
               style="fill:#dddddd"
               d="m 181.303,125.402 c 0,0.263 -0.205,0.473 -0.464,0.473 l -7.155,0.001 c -0.257,-0.001 -0.468,-0.211 -0.468,-0.472 v -7.171 c 0,-0.255 0.209,-0.464 0.468,-0.466 h 7.156 c 0.258,0 0.463,0.211 0.465,0.466 z"
               id="path9683-6-3" />
            <path
               inkscape:connector-curvature="0"
               style="fill:#dddddd"
               d="m 191.155,125.402 c 0,0.263 -0.206,0.473 -0.466,0.473 h -7.156 c -0.254,0 -0.464,-0.21 -0.464,-0.471 v -7.171 c 0,-0.255 0.21,-0.466 0.465,-0.466 h 7.155 c 0.26,0 0.466,0.211 0.465,0.466 z"
               id="path9685-3-8" />
            <path
               inkscape:connector-curvature="0"
               style="fill:#dddddd"
               d="m 201.008,125.402 c 0,0.262 -0.21,0.473 -0.468,0.473 h -7.155 c -0.256,0 -0.466,-0.21 -0.466,-0.471 v -7.171 c 0,-0.255 0.208,-0.466 0.466,-0.466 h 7.155 c 0.259,0 0.467,0.211 0.467,0.466 z"
               id="path9687-1-3" />
            <path
               inkscape:connector-curvature="0"
               style="fill:#dddddd"
               d="m 210.855,125.402 c 0.001,0.263 -0.21,0.473 -0.464,0.473 h -7.153 c -0.26,0 -0.466,-0.21 -0.466,-0.473 v -7.169 c 0,-0.255 0.206,-0.466 0.466,-0.466 h 7.153 c 0.254,0 0.465,0.211 0.465,0.466 z"
               id="path9689-7-7" />
            <path
               inkscape:connector-curvature="0"
               style="fill:#dddddd"
               d="m 220.708,125.402 c 0.002,0.263 -0.209,0.473 -0.468,0.473 h -7.154 c -0.252,0 -0.464,-0.21 -0.465,-0.473 l 0.001,-7.169 c -0.001,-0.256 0.212,-0.466 0.464,-0.466 h 7.154 c 0.259,0 0.47,0.211 0.47,0.466 z"
               id="path9691-5-9" />
            <path
               inkscape:connector-curvature="0"
               style="fill:#dddddd"
               d="m 230.561,125.402 c 0,0.263 -0.209,0.473 -0.464,0.473 h -7.155 c -0.261,0 -0.469,-0.21 -0.469,-0.473 v -7.169 c 0,-0.255 0.208,-0.466 0.467,-0.466 h 7.157 c 0.254,0 0.464,0.211 0.464,0.466 z"
               id="path9693-9-3" />
            <path
               inkscape:connector-curvature="0"
               style="fill:#dddddd"
               d="m 112.347,125.404 c 0,0.261 -0.208,0.471 -0.466,0.471 H 99.75 c -0.26,0.001 -0.469,-0.21 -0.469,-0.473 v -7.169 c 0,-0.255 0.209,-0.466 0.468,-0.464 l 12.131,-0.002 c 0.259,0 0.467,0.211 0.468,0.466 z"
               id="path9695-6-7" />
            <path
               inkscape:connector-curvature="0"
               style="fill:#dddddd"
               d="m 240.411,115.531 c 0,0.259 -0.21,0.471 -0.467,0.471 h -12.133 c -0.252,0 -0.464,-0.212 -0.464,-0.471 v -7.167 c 0,-0.26 0.212,-0.469 0.464,-0.469 h 12.133 c 0.257,0 0.467,0.209 0.467,0.469 z"
               id="path9697-2-8" />
            <path
               inkscape:connector-curvature="0"
               style="fill:#dddddd"
               d="m 114.678,135.278 c 0,0.261 -0.208,0.466 -0.468,0.466 H 99.75 c -0.259,0 -0.469,-0.205 -0.468,-0.467 l -10e-4,-7.17 c 0,-0.253 0.209,-0.466 0.469,-0.467 h 14.46 c 0.26,0.001 0.468,0.214 0.468,0.466 z"
               id="path9699-1-7" />
            <path
               inkscape:connector-curvature="0"
               style="fill:#dddddd"
               d="m 109.86,145.149 c 0,0.257 -0.211,0.469 -0.468,0.468 l -9.643,0.001 c -0.259,0 -0.468,-0.212 -0.468,-0.469 l 10e-4,-7.171 c -10e-4,-0.256 0.208,-0.468 0.467,-0.468 h 9.642 c 0.258,0 0.469,0.212 0.468,0.468 z"
               id="path9701-7-4" />
            <path
               inkscape:connector-curvature="0"
               style="fill:#dddddd"
               d="m 117.221,115.531 c 0,0.259 -0.208,0.471 -0.468,0.471 h -7.151 c -0.256,0 -0.467,-0.212 -0.467,-0.471 v -7.167 c 0,-0.26 0.21,-0.469 0.468,-0.469 h 7.151 c 0.26,0 0.468,0.209 0.468,0.47 v 7.166 z"
               id="path9703-8-1" />
            <path
               inkscape:connector-curvature="0"
               style="fill:#dddddd"
               d="m 127.073,115.531 c 0,0.259 -0.209,0.471 -0.467,0.471 h -7.156 c -0.254,0 -0.464,-0.212 -0.464,-0.471 v -7.167 c 0,-0.26 0.21,-0.469 0.464,-0.469 h 7.156 c 0.258,0 0.467,0.209 0.467,0.469 z"
               id="path9705-5-9" />
            <path
               inkscape:connector-curvature="0"
               style="fill:#dddddd"
               d="m 136.927,115.532 c 0,0.259 -0.215,0.47 -0.472,0.47 H 129.3 c -0.256,0 -0.464,-0.212 -0.464,-0.471 v -7.167 c 0,-0.26 0.208,-0.469 0.464,-0.469 h 7.154 c 0.258,0 0.474,0.209 0.474,0.469 z"
               id="path9707-7-0" />
            <path
               inkscape:connector-curvature="0"
               style="fill:#dddddd"
               d="m 146.774,115.532 c 0,0.259 -0.21,0.47 -0.467,0.47 h -7.155 c -0.255,0 -0.468,-0.211 -0.468,-0.47 v -7.168 c 0,-0.259 0.211,-0.469 0.467,-0.469 h 7.156 c 0.258,0 0.469,0.209 0.469,0.469 z"
               id="path9709-4-9" />
            <path
               inkscape:connector-curvature="0"
               style="fill:#dddddd"
               d="m 156.622,115.531 c 0,0.259 -0.206,0.47 -0.465,0.471 h -7.155 c -0.256,0 -0.466,-0.211 -0.466,-0.47 v -7.168 c 0,-0.26 0.209,-0.469 0.465,-0.469 h 7.156 c 0.258,0 0.464,0.209 0.464,0.469 v 7.167 z"
               id="path9711-1-8" />
            <path
               inkscape:connector-curvature="0"
               style="fill:#dddddd"
               d="m 166.476,115.532 c 0,0.259 -0.209,0.47 -0.466,0.47 h -7.151 c -0.259,0 -0.469,-0.212 -0.469,-0.471 v -7.167 c 0,-0.26 0.21,-0.469 0.469,-0.469 h 7.151 c 0.257,0 0.466,0.21 0.466,0.469 z"
               id="path9713-8-8" />
            <path
               inkscape:connector-curvature="0"
               style="fill:#dddddd"
               d="m 176.325,115.532 c 0,0.259 -0.205,0.47 -0.464,0.47 h -7.155 c -0.259,0 -0.468,-0.212 -0.468,-0.471 v -7.167 c 0,-0.26 0.209,-0.469 0.468,-0.469 h 7.153 c 0.261,0 0.466,0.21 0.466,0.469 z"
               id="path9715-5-5" />
            <path
               inkscape:connector-curvature="0"
               style="fill:#dddddd"
               d="m 186.178,115.532 c 0,0.259 -0.208,0.47 -0.468,0.47 h -7.154 c -0.258,0 -0.469,-0.212 -0.469,-0.471 v -7.167 c 0,-0.26 0.211,-0.469 0.469,-0.469 h 7.154 c 0.26,0 0.468,0.21 0.469,0.468 z"
               id="path9717-9-8" />
            <path
               inkscape:connector-curvature="0"
               style="fill:#dddddd"
               d="m 196.027,115.53 c 0,0.26 -0.207,0.472 -0.465,0.472 h -7.152 c -0.26,0 -0.469,-0.211 -0.469,-0.47 l 0.001,-7.168 c 0,-0.26 0.208,-0.469 0.468,-0.469 h 7.152 c 0.258,0 0.465,0.209 0.465,0.469 z"
               id="path9719-7-4" />
            <path
               inkscape:connector-curvature="0"
               style="fill:#dddddd"
               d="m 205.881,115.53 c 0,0.26 -0.21,0.472 -0.465,0.472 h -7.156 c -0.256,0 -0.466,-0.212 -0.466,-0.471 l 10e-4,-7.167 c 0,-0.26 0.209,-0.469 0.465,-0.469 h 7.156 c 0.255,0 0.465,0.209 0.465,0.469 z"
               id="path9721-5-3" />
            <path
               inkscape:connector-curvature="0"
               style="fill:#dddddd"
               d="m 215.732,115.531 c 0,0.259 -0.21,0.471 -0.468,0.471 h -7.153 c -0.259,0 -0.47,-0.212 -0.47,-0.471 v -7.167 c 0,-0.26 0.211,-0.469 0.47,-0.469 h 7.153 c 0.258,0 0.467,0.209 0.468,0.469 z"
               id="path9723-3-7" />
            <path
               inkscape:connector-curvature="0"
               style="fill:#dddddd"
               d="m 225.582,115.531 c 0,0.259 -0.208,0.471 -0.464,0.471 h -7.158 c -0.255,0 -0.465,-0.212 -0.465,-0.471 v -7.167 c 0,-0.26 0.21,-0.469 0.463,-0.469 h 7.16 c 0.256,0 0.465,0.209 0.464,0.469 z"
               id="path9725-8-1" />
            <g
               id="g9731-8-3">
              <path
                 inkscape:connector-curvature="0"
                 style="fill:#dddddd"
                 d="m 222.551,152.325 v 3.943 c 0,0.123 0.045,0.243 0.137,0.332 0.09,0.09 0.212,0.137 0.328,0.137 h 7.158 c 0.119,0 0.236,-0.047 0.33,-0.139 0.09,-0.087 0.137,-0.209 0.137,-0.33 v -3.944 z"
                 id="path9727-3-8" />
              <path
                 inkscape:connector-curvature="0"
                 style="fill:#dddddd"
                 d="m 230.641,151.795 v -3.944 c 0,-0.116 -0.047,-0.238 -0.137,-0.328 -0.093,-0.092 -0.211,-0.139 -0.329,-0.139 h -7.158 c -0.117,0 -0.239,0.047 -0.329,0.139 -0.092,0.09 -0.137,0.212 -0.137,0.328 v 3.944 z"
                 id="path9729-1-0" />
            </g>
            <path
               inkscape:connector-curvature="0"
               style="fill:#dddddd"
               d="m 232.789,117.767 c -0.117,0 -0.237,0.043 -0.329,0.138 -0.09,0.091 -0.134,0.209 -0.134,0.329 v 7.169 c 0,0.122 0.044,0.242 0.134,0.335 0.092,0.09 0.212,0.138 0.329,0.138 h 1.867 v 9.402 c 0,0.121 0.049,0.242 0.14,0.33 0.091,0.093 0.207,0.137 0.328,0.137 h 4.82 c 0.121,0 0.239,-0.044 0.331,-0.137 0.092,-0.088 0.139,-0.209 0.139,-0.33 v -17.044 c 0,-0.119 -0.047,-0.238 -0.139,-0.329 -0.092,-0.093 -0.21,-0.138 -0.331,-0.138 z"
               id="path9733-8-9" />
          </g>
        </g>
      </g>
      <polygon
         transform="matrix(0.4938889,0,0,0.4938889,9.9810386,96.289763)"
         id="polygon9740-6-9"
         points="74.45,85.203 74.45,77.563 24.149,77.563 24.149,85.203 24.149,128.12 74.45,128.12 "
         style="fill:#dddddd" />
      <rect
         x="19.756199"
         y="132.73325"
         style="fill:#ecf0f1;fill-opacity:1;stroke-width:0.49388888"
         width="24.843105"
         height="24.97201"
         id="rect9742-3-3" />
      <rect
         x="23.179766"
         y="140.31763"
         style="fill:#424242;fill-opacity:1;stroke-width:0.49388888"
         width="17.995831"
         height="0.96901006"
         id="rect9744-3-2" />
      <rect
         x="23.179766"
         y="143.04732"
         style="fill:#424242;fill-opacity:1;stroke-width:0.49388888"
         width="17.995831"
         height="0.96950394"
         id="rect9746-3-4" />
      <rect
         x="23.179766"
         y="145.77805"
         style="fill:#424242;fill-opacity:1;stroke-width:0.49388888"
         width="17.995831"
         height="0.96950394"
         id="rect9748-8-3" />
      <rect
         x="23.179766"
         y="148.50877"
         style="fill:#424242;fill-opacity:1;stroke-width:0.49388888"
         width="17.995831"
         height="0.96999782"
         id="rect9750-6-7" />
      <rect
         x="23.179766"
         y="151.24419"
         style="fill:#424242;fill-opacity:1;stroke-width:0.49388888"
         width="17.995831"
         height="0.96999782"
         id="rect9752-0-1" />
      <rect
         x="19.756199"
         y="132.73325"
         style="fill:#dddddd;stroke-width:0.49388888"
         width="24.843105"
         height="3.7728174"
         id="rect9754-4-2" />
      <path
         id="path9760-8-0"
         d="m 171.26284,147.81284 c -0.21919,0 -0.4257,0 -0.63711,0 v -8.04202 h -6.4032 v 8.04202 c -0.11851,0 -0.23712,0 -0.3551,0 h -0.28203 c -0.0672,0.0181 -0.0373,13.98795 0,14.02592 0.4559,0.45536 1.24459,1.01494 1.29696,1.01494 h 0.0971 v 3.66474 h 4.88949 v -3.66474 h 0.0971 c 0.0523,0 0.98475,-0.70326 1.29643,-1.01494 0.0384,-0.0384 0.0704,-14.02592 5.3e-4,-14.02592 z"
         style="fill:#dddddd;stroke-width:0.49388888"
         inkscape:connector-curvature="0" />
      <rect
         x="163.85159"
         y="161.72491"
         style="fill:#ffffff;stroke-width:0.49388888"
         width="4.8894997"
         height="3.6641617"
         id="rect9762-9-1" />
      <path
         inkscape:connector-curvature="0"
         style="fill:#424242;fill-opacity:1;stroke-width:0.49388888"
         d="m 162.45741,146.68229 c -0.0683,0.0192 -0.0373,13.98997 0,14.02794 0.45578,0.45536 1.24501,1.01493 1.29685,1.01493 h 2.53963 v 0 h 2.54005 c 0.0523,0 0.98485,-0.70325 1.29642,-1.01493 0.0384,-0.0384 0.0704,-14.02794 0,-14.02794 -3.06005,0 -5.248,0 -7.39541,0"
         id="path9764-7-7" />
      <rect
         x="164.47191"
         y="162.74106"
         style="fill:#666666;stroke-width:0.49388888"
         width="1.0282768"
         height="0.73540056"
         id="rect9766-7-5" />
      <rect
         x="167.13603"
         y="162.74106"
         style="fill:#666666;stroke-width:0.49388888"
         width="1.0282768"
         height="0.73540056"
         id="rect9768-6-1" />
      <path
         inkscape:connector-curvature="0"
         style="fill:#e9eff2;stroke-width:0.49388888"
         d="m 163.09442,138.64079 v 11.99264 c 0,1.76565 1.43627,3.20139 3.20096,3.20139 1.76618,0 3.20192,-1.43627 3.20192,-3.20139 v -11.99264 z m 3.20149,14.00918 c -1.11381,0 -2.01664,-0.90326 -2.01664,-2.01707 0,-1.11371 0.90283,-2.01696 2.01664,-2.01696 1.11414,0 2.01696,0.90325 2.01696,2.01696 0,1.11381 -0.90282,2.01707 -2.01696,2.01707 z"
         id="path9770-4-7" />
      <g
         transform="matrix(0.4938889,0,0,0.4938889,9.9810386,96.289763)"
         id="g9819-7-4">
        <path
           inkscape:connector-curvature="0"
           style="fill:#dddddd"
           d="m 298.615,71.027 c -1.129,-0.769 -2.278,-1.411 -3.417,-1.907 -3.053,-1.332 -6.181,-1.701 -9.254,-1.089 -7.508,1.492 -12.701,8.319 -14.585,11.186 -4.933,7.508 -12.518,9.414 -22.417,5.663 -4.183,-1.583 -6.989,-4.024 -8.346,-7.25 -0.694,-1.653 -1.012,-3.529 -0.945,-5.575 l 0.015,-0.407 h -1.521 l -0.012,0.381 c -0.072,2.258 0.283,4.34 1.06,6.19 1.524,3.625 4.622,6.346 9.211,8.086 10.64,4.03 18.876,1.894 24.227,-6.252 1.779,-2.706 6.669,-9.148 13.61,-10.528 3.823,-0.764 7.718,0.173 11.519,2.762 4.061,2.763 6.13,6.714 5.679,10.84 -0.634,5.766 -6.055,11.086 -14.874,14.598 -3.583,1.425 -6.162,3.664 -7.561,6.455 -0.494,-0.074 -0.994,-0.125 -1.507,-0.125 -5.596,0 -10.176,4.58 -10.176,10.176 v 17.466 c 0,5.597 4.58,10.176 10.176,10.176 5.597,0 10.175,-4.579 10.175,-10.176 v -17.466 c 0,-4.532 -3.003,-8.396 -7.117,-9.702 1.277,-2.303 3.509,-4.172 6.57,-5.391 9.361,-3.724 15.13,-9.499 15.824,-15.846 0.516,-4.703 -1.793,-9.174 -6.334,-12.265 z"
           id="path9810-7-1" />
        <g
           id="g9817-5-7">
          <path
             inkscape:connector-curvature="0"
             style="fill:#ffffff"
             d="m 295.761,69.883 c -1.13,-0.769 -2.279,-1.411 -3.417,-1.907 -3.053,-1.333 -6.182,-1.702 -9.255,-1.089 -7.507,1.492 -12.7,8.319 -14.585,11.185 -4.932,7.509 -12.517,9.414 -22.417,5.664 -4.183,-1.584 -6.988,-4.024 -8.346,-7.251 -0.694,-1.653 -1.011,-3.529 -0.944,-5.574 l 0.015,-0.407 h -1.521 l -0.012,0.381 c -0.073,2.258 0.282,4.34 1.06,6.189 1.523,3.626 4.622,6.347 9.21,8.087 10.64,4.03 18.877,1.894 24.228,-6.251 1.778,-2.706 6.669,-9.148 13.61,-10.528 3.823,-0.764 7.718,0.173 11.518,2.762 4.061,2.763 6.131,6.714 5.68,10.84 -0.634,5.767 -6.055,11.086 -14.875,14.598 -3.583,1.425 -6.161,3.665 -7.56,6.455 -0.494,-0.074 -0.995,-0.125 -1.507,-0.125 -5.596,0 -10.177,4.58 -10.177,10.176 v 17.469 c 0,5.597 4.581,10.176 10.177,10.176 5.597,0 10.175,-4.579 10.175,-10.176 v -17.469 c 0,-4.532 -3.004,-8.396 -7.117,-9.702 1.276,-2.303 3.509,-4.171 6.568,-5.39 9.362,-3.725 15.132,-9.5 15.826,-15.846 0.514,-4.705 -1.794,-9.176 -6.334,-12.267 z"
             id="path9812-4-1" />
          <g
             id="XMLID_771_-8-1">
            <path
               inkscape:connector-curvature="0"
               style="fill:#dddddd"
               d="m 276.643,116.565 v 0 c -0.927,0 -1.684,-0.756 -1.684,-1.683 v -4.055 c 0,-0.925 0.757,-1.683 1.684,-1.683 v 0 c 0.926,0 1.682,0.757 1.682,1.683 v 4.055 c -10e-4,0.927 -0.757,1.683 -1.682,1.683 z"
               id="path9814-1-1" />
          </g>
        </g>
      </g>
      <g
         transform="matrix(0.15119047,0,0,-0.15119047,64.397469,218.54788)"
         id="g24235-1-9">
        <g
           id="g24237-7-6" />
        <g
           id="g24249-8-4">
          <g
             style="opacity:0.10000598"
             id="g24247-9-8"
             clip-path="url(#clipPath24241-3-1-8-4)">
            <g
               id="g24245-1-0"
               transform="translate(854.6641,266.0332)">
              <path
                 inkscape:connector-curvature="0"
                 id="path24243-5-8"
                 style="fill:#000000;fill-opacity:1;fill-rule:nonzero;stroke:none"
                 d="m 0,0 c -26.834,47.674 -87.477,64.645 -135.185,37.832 -47.708,-26.813 -64.692,-87.414 -37.859,-135.089 26.832,-47.674 87.476,-64.645 135.184,-37.832 C 9.849,-108.277 26.833,-47.676 0,0" />
            </g>
          </g>
        </g>
      </g>
      <g
         transform="matrix(0.15119047,0,0,-0.15119047,188.51981,197.80325)"
         id="g24251-4-0">
        <path
           inkscape:connector-curvature="0"
           id="path24253-9-2"
           style="fill:#f4f4f4;fill-opacity:1;fill-rule:nonzero;stroke:none"
           d="m 0,0 c -45.979,-25.842 -104.218,-9.543 -130.077,36.404 -25.86,45.946 -9.55,104.142 36.429,129.984 45.979,25.841 104.216,9.544 130.077,-36.404 C 62.289,84.037 45.98,25.841 0,0" />
      </g>
      <g
         style="fill:#424242;fill-opacity:1"
         transform="matrix(0.15119047,0,0,-0.15119047,185.29486,192.0729)"
         id="g24255-2-2">
        <path
           inkscape:connector-curvature="0"
           id="path24257-5-9"
           style="fill:#424242;fill-opacity:1;fill-rule:nonzero;stroke:none"
           d="m 0,0 c -25.033,-14.07 -56.743,-5.195 -70.822,19.82 -14.079,25.016 -5.2,56.701 19.835,70.771 25.034,14.069 56.741,5.196 70.82,-19.82 C 33.913,45.755 25.033,14.07 0,0" />
      </g>
      <g
         transform="matrix(0.15119047,0,0,-0.15119047,187.66743,181.72505)"
         id="g24259-7-7">
        <path
           inkscape:connector-curvature="0"
           id="path24261-4-5"
           style="fill:#ffffff;fill-opacity:1;fill-rule:nonzero;stroke:none"
           d="M 0,0 C -12.772,22.694 -41.64,30.774 -64.352,18.01 -87.061,5.246 -95.147,-23.602 -82.374,-46.296 -69.602,-68.99 -40.733,-77.069 -18.021,-64.305 4.689,-51.541 12.773,-22.694 0,0 m -90.656,-50.95 c -15.341,27.258 -5.63,61.906 21.647,77.235 27.277,15.332 61.949,5.626 77.29,-21.63 15.343,-27.259 5.632,-61.905 -21.645,-77.236 -27.277,-15.33 -61.95,-5.626 -77.292,21.631" />
      </g>
      <g
         transform="matrix(0.15119047,0,0,-0.15119047,64.397469,218.54788)"
         id="g24263-9-6">
        <g
           id="g24265-9-4" />
        <g
           id="g24277-4-6">
          <g
             style="opacity:0.30000299"
             id="g24275-5-3"
             clip-path="url(#clipPath24269-2-9-6-3)">
            <g
               id="g24273-9-7"
               transform="translate(812.9424,245.0273)">
              <path
                 inkscape:connector-curvature="0"
                 id="path24271-3-9"
                 style="fill:#000000;fill-opacity:1;fill-rule:nonzero;stroke:none"
                 d="m 0,0 c -12.938,20.242 -39.607,27.091 -60.819,15.17 -15.579,-8.756 -24.03,-25.287 -23.22,-41.991 6.052,8.725 14.123,16.253 24.006,21.805 C -40.957,5.707 -19.098,6.861 0,0" />
            </g>
          </g>
        </g>
      </g>
      <g
         transform="matrix(0.15119047,0,0,-0.15119047,193.53345,178.42863)"
         id="g24279-5-7">
        <path
           inkscape:connector-curvature="0"
           id="path24281-7-4"
           style="fill:#ffffff;fill-opacity:1;fill-rule:nonzero;stroke:none"
           d="m 0,0 c -24.807,44.073 -80.867,59.762 -124.972,34.974 -44.103,-24.787 -59.803,-80.809 -34.998,-124.88 24.805,-44.073 80.866,-59.762 124.97,-34.974 C 9.103,-100.093 24.804,-44.072 0,0 m -166.508,-93.581 c -26.832,47.675 -9.849,108.274 37.86,135.089 47.71,26.811 108.352,9.841 135.186,-37.833 26.831,-47.674 9.848,-108.276 -37.86,-135.088 -47.709,-26.815 -108.353,-9.844 -135.186,37.832" />
      </g>
      <g
         transform="matrix(0.15119047,0,0,-0.15119047,189.40193,182.57039)"
         id="g24283-0-9">
        <path
           inkscape:connector-curvature="0"
           id="path24285-8-1"
           style="fill:#ffffff;fill-opacity:1;fill-rule:nonzero;stroke:none"
           d="m 0,0 c -1.685,-0.948 -3.819,-0.351 -4.768,1.334 l -7.108,12.632 c -0.948,1.682 -0.35,3.816 1.334,4.763 l 23.103,12.984 c 1.685,0.946 3.82,0.35 4.765,-1.334 l 7.112,-12.633 c 0.947,-1.683 0.35,-3.816 -1.335,-4.763 z" />
      </g>
    </g>
  </g>
</svg>
